<svg xmlns="http://www.w3.org/2000/svg" width="18" height="18" viewBox="0 0 18 18">
  <path id="Icon_feather-message-circle" data-name="Icon feather-message-circle" d="M20.5,12.056a7.449,7.449,0,0,1-.8,3.378,7.556,7.556,0,0,1-6.756,4.178,7.449,7.449,0,0,1-3.378-.8L4.5,20.5l1.689-5.067a7.449,7.449,0,0,1-.8-3.378A7.556,7.556,0,0,1,9.567,5.3a7.449,7.449,0,0,1,3.378-.8h.444A7.538,7.538,0,0,1,20.5,11.611Z" transform="translate(-3.5 -3.5)" fill="#24241e" stroke="#24241e" stroke-linecap="round" stroke-linejoin="round" stroke-width="2"/>
</svg>
